{
    "asset" : {
        "generator" : "Khronos glTF Blender I/O v1.5.17",
        "version" : "2.0"
    },
    "extensionsUsed" : [
        "KHR_texture_transform"
    ],
    "extensionsRequired" : [
        "KHR_texture_transform"
    ],
    "scene" : 0,
    "scenes" : [
        {
            "name" : "Scene",
            "nodes" : [
                2,
                3,
                4
            ]
        }
    ],
    "nodes" : [
        {
            "mesh" : 0,
            "name" : "NAUO1.001"
        },
        {
            "children" : [
                0
            ],
            "name" : "NAUO1",
            "rotation" : [
                1,
                0,
                0,
                7.549790126404332e-08
            ],
            "scale" : [
                100,
                100.00001525878906,
                100.00001525878906
            ]
        },
        {
            "children" : [
                1
            ],
            "name" : "RootNode"
        },
        {
            "name" : "Light",
            "rotation" : [
                0.16907575726509094,
                0.7558803558349609,
                -0.27217137813568115,
                0.570947527885437
            ],
            "translation" : [
                4.076245307922363,
                5.903861999511719,
                -1.0054539442062378
            ]
        },
        {
            "name" : "Camera",
            "rotation" : [
                0.483536034822464,
                0.33687159419059753,
                -0.20870360732078552,
                0.7804827094078064
            ],
            "translation" : [
                7.358891487121582,
                4.958309173583984,
                6.925790786743164
            ]
        }
    ],
    "materials" : [
        {
            "name" : "MetalStainlessSteelBrushedElongated005_3K",
            "normalTexture" : {
                "extensions" : {
                    "KHR_texture_transform" : {
                        "offset" : [
                            0,
                            -69
                        ],
                        "scale" : [
                            70,
                            70
                        ]
                    }
                },
                "index" : 0
            },
            "pbrMetallicRoughness" : {
                "baseColorFactor" : [
                    0.5727035403251648,
                    0.5727035403251648,
                    0.5727035403251648,
                    1
                ],
                "roughnessFactor" : 0.125
            }
        }
    ],
    "meshes" : [
        {
            "name" : "NAUO1",
            "primitives" : [
                {
                    "attributes" : {
                        "POSITION" : 0,
                        "NORMAL" : 1,
                        "TEXCOORD_0" : 2
                    },
                    "indices" : 3,
                    "material" : 0
                }
            ]
        }
    ],
    "textures" : [
        {
            "sampler" : 0,
            "source" : 0
        }
    ],
    "images" : [
        {
            "mimeType" : "image/jpeg",
            "name" : "brushed-metal",
            "uri" : "brushed-metal.jpg"
        }
    ],
    "accessors" : [
        {
            "bufferView" : 0,
            "componentType" : 5126,
            "count" : 43906,
            "max" : [
                0.13279277086257935,
                0.18753913044929504,
                0.042797259986400604
            ],
            "min" : [
                -0.1322072148323059,
                -0.20408537983894348,
                -0.04720274358987808
            ],
            "type" : "VEC3"
        },
        {
            "bufferView" : 1,
            "componentType" : 5126,
            "count" : 43906,
            "type" : "VEC3"
        },
        {
            "bufferView" : 2,
            "componentType" : 5126,
            "count" : 43906,
            "type" : "VEC2"
        },
        {
            "bufferView" : 3,
            "componentType" : 5123,
            "count" : 86100,
            "type" : "SCALAR"
        }
    ],
    "bufferViews" : [
        {
            "buffer" : 0,
            "byteLength" : 526872,
            "byteOffset" : 0
        },
        {
            "buffer" : 0,
            "byteLength" : 526872,
            "byteOffset" : 526872
        },
        {
            "buffer" : 0,
            "byteLength" : 351248,
            "byteOffset" : 1053744
        },
        {
            "buffer" : 0,
            "byteLength" : 172200,
            "byteOffset" : 1404992
        }
    ],
    "samplers" : [
        {
            "magFilter" : 9729,
            "minFilter" : 9987
        }
    ],
    "buffers" : [
        {
            "byteLength" : 1577192,
            "uri" : "affco.bin"
        }
    ]
}
